<svg xmlns="http://www.w3.org/2000/svg" data-name="Layer 3" viewBox="0 0 64 80" x="0px" y="0px"><title>T SHIRT-clothes-clothing-shirt-fashion</title><rect x="15" y="59" width="34" height="2"/><path d="M29.27,29.76a12.16,12.16,0,0,1,5.67.68A3,3,0,0,0,32,28,3,3,0,0,0,29.27,29.76Z"/><path d="M29.12,31.79a3,3,0,0,0,5.49.67A10.13,10.13,0,0,0,29.12,31.79Z"/><path d="M5,24v5h8V21.06A29.45,29.45,0,0,0,9.89,7.93,29.15,29.15,0,0,0,5,24Z"/><path d="M19.85,31,32,38.81,44.15,31,32,23.19ZM37,31a5,5,0,1,1-5-5A5,5,0,0,1,37,31Z"/><path d="M41,3.33V4A9,9,0,0,1,23,4V3.33L11.48,6.62A31.39,31.39,0,0,1,15,21.06V57H49V21.06A31.39,31.39,0,0,1,52.52,6.62Zm5.54,28.51-14,9a1,1,0,0,1-1.08,0l-14-9a1,1,0,0,1,0-1.68l14-9a1,1,0,0,1,1.08,0l14,9a1,1,0,0,1,0,1.68Z"/><path d="M54.11,7.93A29.45,29.45,0,0,0,51,21.06V29h8V24A29.15,29.15,0,0,0,54.11,7.93Z"/><text x="0" y="79" fill="#000000" font-size="5px" font-weight="bold" font-family="'Helvetica Neue', Helvetica, Arial-Unicode, Arial, Sans-serif">Created by Start Up Graphic Design</text><text x="0" y="84" fill="#000000" font-size="5px" font-weight="bold" font-family="'Helvetica Neue', Helvetica, Arial-Unicode, Arial, Sans-serif">from the Noun Project</text></svg>