<svg xmlns="http://www.w3.org/2000/svg" viewBox="0 0 64 80" x="0px" y="0px"><g data-name="09-Brazil"><path d="M32,50a1,1,0,0,1-.533-.154l-27-17a1,1,0,0,1,0-1.692l5-3.149L10.533,29.7,6.877,32,32,47.818,57.123,32,32,16.182,12.533,28.439l-1.066-1.692,20-12.593a1,1,0,0,1,1.066,0l27,17a1,1,0,0,1,0,1.692l-27,17A1,1,0,0,1,32,50Z"/><path d="M32,43A11.01,11.01,0,0,1,21.527,28.625v0A11,11,0,0,1,43,32a10.449,10.449,0,0,1-.2,2.056A10.99,10.99,0,0,1,32,43ZM23.432,29.235A9.009,9.009,0,0,0,32,41a8.994,8.994,0,0,0,8.837-7.325A8.518,8.518,0,0,0,41,32a9,9,0,0,0-17.568-2.765Z"/><path d="M22.183,29.983l-.366-1.966c.18-.034.359-.057.539-.079a27.333,27.333,0,0,1,3.631-.292l.026,2a25.457,25.457,0,0,0-3.386.273C22.463,29.94,22.323,29.957,22.183,29.983Z"/><path d="M41.363,34.771l-.144-.112A24.479,24.479,0,0,0,27.935,29.7l.131-2A26.58,26.58,0,0,1,42.45,33.083c.116.087.188.147.188.147Z"/><path d="M55,64H5a5.006,5.006,0,0,1-5-5V5A5.006,5.006,0,0,1,5,0H7V2H5A3,3,0,0,0,2,5V59a3,3,0,0,0,3,3H55Z"/><path d="M59,64H57V62h2a3,3,0,0,0,3-3V5a3,3,0,0,0-3-3H13V0H59a5.006,5.006,0,0,1,5,5V59A5.006,5.006,0,0,1,59,64Z"/><rect x="9" width="2" height="2"/></g><text x="0" y="79" fill="#000000" font-size="5px" font-weight="bold" font-family="'Helvetica Neue', Helvetica, Arial-Unicode, Arial, Sans-serif">Created by Justicon</text><text x="0" y="84" fill="#000000" font-size="5px" font-weight="bold" font-family="'Helvetica Neue', Helvetica, Arial-Unicode, Arial, Sans-serif">from the Noun Project</text></svg>