<svg xmlns="http://www.w3.org/2000/svg" data-name="Layer 1" viewBox="0 0 100 125" x="0px" y="0px"><title>16</title><path d="M30.23407,20.29749c0,1.862-3.40552,3.37158-7.60638,3.37158s-7.60639-1.50959-7.60639-3.37158,3.40546-3.37159,7.60639-3.37159S30.23407,18.43549,30.23407,20.29749ZM25.67639,73.24524C13.48157,71.10278,5,65.56348,5,58.90088a2.0001,2.0001,0,0,1,2-2V47.54a35.88518,35.88518,0,0,0,14.05,6.59,3.85042,3.85042,0,0,0,4.62634-2.68652C13.48157,49.301,5,43.76172,5,37.09912a2.0001,2.0001,0,0,1,2-2V25.71851a8.826,8.826,0,0,1-2-5.42115C5,11.71924,19.05566,5,37,5s32,6.71924,32,15.29736a8.826,8.826,0,0,1-2,5.42115v9.38061a2.0001,2.0001,0,0,1,2,2,8.82592,8.82592,0,0,1-2,5.42114V50.073c-1.65308,2.63965-4.07373,4.75342-6.8125,7.13257C55.125,61.604,49.38672,66.58936,49.38672,75.88379A23.51362,23.51362,0,0,0,55.745,92.205,59.75845,59.75845,0,0,1,37,95C22.37305,95,9.998,90.583,6.208,84.00879A8.45428,8.45428,0,0,1,5,79.7002a2.0001,2.0001,0,0,1,2-2V69.35a35.76666,35.76666,0,0,0,14.07,6.57995A3.83244,3.83244,0,0,0,25.67639,73.24524ZM37,31.59473c16.501,0,28-5.9541,28-11.29737S53.501,9,37,9,9,14.9541,9,20.29736,20.499,31.59473,37,31.59473ZM74.69312,95C63.49634,95,54.3869,87.08063,54.3869,75.88379c0-14.88544,19.87189-15.44867,19.87189-34.1861.01123-.37915.43463-.71972.86456.00238C82.30365,54.24048,95,60.99835,95,75.88379,95,87.08,85.89,95,74.69312,95ZM73.36719,83.95087a3.61606,3.61606,0,0,0-2.764-3.5149c-3.02576-.73193-4.97626-2.85009-5.34479-4.99108-.49115-2.85328.77179-8.26294,2.47119-12.70075-4.31994,5.729-6.732,9.77246-6.732,13.39563a12.19342,12.19342,0,0,0,7.20471,11.0921,3.62379,3.62379,0,0,0,5.16492-3.281Z"/><text x="0" y="115" fill="#000000" font-size="5px" font-weight="bold" font-family="'Helvetica Neue', Helvetica, Arial-Unicode, Arial, Sans-serif">Created by TTHNga</text><text x="0" y="120" fill="#000000" font-size="5px" font-weight="bold" font-family="'Helvetica Neue', Helvetica, Arial-Unicode, Arial, Sans-serif">from the Noun Project</text></svg>