<svg xmlns="http://www.w3.org/2000/svg" xmlns:xlink="http://www.w3.org/1999/xlink" version="1.1" x="0px" y="0px" viewBox="0 0 512 640" style="enable-background:new 0 0 512 512;" xml:space="preserve"><polygon points="178.3,138.3 168,148.7 157.7,138.3 146.3,149.7 156.7,160 146.3,170.3 157.7,181.7 168,171.3 178.3,181.7   189.7,170.3 179.3,160 189.7,149.7 "/><polygon points="322.3,130.3 312,140.7 301.7,130.3 290.3,141.7 300.7,152 290.3,162.3 301.7,173.7 312,163.3 322.3,173.7   333.7,162.3 323.3,152 333.7,141.7 "/><polygon points="138.3,370.3 128,380.7 117.7,370.3 106.3,381.7 116.7,392 106.3,402.3 117.7,413.7 128,403.3 138.3,413.7   149.7,402.3 139.3,392 149.7,381.7 "/><polygon points="245.7,381.7 256,371.3 266.3,381.7 277.7,370.3 267.3,360 277.7,349.7 266.3,338.3 256,348.7 245.7,338.3   234.3,349.7 244.7,360 234.3,370.3 "/><path d="M487.8,226.2c-11-26.1-32.9-46-59.8-54.6l-6.8-2.2c-4.2-1.3-8.7,1-10,5.2c0,0,0,0,0,0l-10.8,33.8L325,226.3  c-6.8,1.6-12.6,6.1-15.8,12.3c-9.6-29.4-41.2-45.4-70.6-35.8c-20.3,6.6-35,24.1-38,45.2h-39.5c-2.4-18-0.7-36.3,4.9-53.5l-15.2-5  c-6.2,18.8-8.2,38.8-5.8,58.5h-23.4c3.4-9.7,7.7-19.1,12.9-28l-13.8-8c-6.6,11.4-11.9,23.5-15.9,36H80V32h88v72c0,4.4,3.6,8,8,8  c0,0,0,0,0,0h160c4.4,0,8-3.6,8-8c0,0,0,0,0,0V32h88v128h16V24c0-4.4-3.6-8-8-8c0,0,0,0,0,0H72c-4.4,0-8,3.6-8,8c0,0,0,0,0,0v464  c0,4.4,3.6,8,8,8c0,0,0,0,0,0h248v-16H184v-64h64v-16h-72c-4.4,0-8,3.6-8,8c0,0,0,0,0,0v72H80V264h20.4c-7.3,32.7-5.5,66.8,5.1,98.5  l15.2-5.1c-10.1-30.2-11.4-62.6-3.8-93.5h31c9.5,39.4,36.2,72.6,72.7,90.3l7-14.4c-31-15.1-54-42.7-63.2-75.9h36.2  c4.4,30.6,32.8,51.8,63.4,47.4c20.9-3,38.3-17.5,45.1-37.5c4.5,7,12.2,11.2,20.5,11.1l48.5-0.7c-3.5,16.9-15.8,30.6-32.3,35.9  l-3.6,1.2c-19.7,6.4-35,21.8-41.3,41.5l-5.8,18.3c-2-0.6-4.2-0.5-6.1,0.5l-10.1,5.2c-1.9,1-3.3,2.7-3.9,4.7l-14.6,45.7  c-1.3,4.2,1,8.7,5.2,10.1l167.7,53.4c4.2,1.3,8.7-1,10.1-5.2l14.6-45.7c0.6-2,0.5-4.2-0.5-6.1l-5.2-10c-1-1.9-2.7-3.3-4.7-3.9  l43.4-136.4C497.9,271.3,496.8,247.5,487.8,226.2z M184,32h144v64H184V32z M256,296c-19,0-35.4-13.4-39.2-32h78.4  C291.4,282.6,275,296,256,296z M216.8,248c4.4-21.6,25.6-35.6,47.2-31.2c15.7,3.2,28,15.5,31.2,31.2H216.8z M424,187.1  c12.2,4,23.3,11,32.4,20.2L438,220.4c-5.2-4-11.1-7.1-17.4-9.1l-3.9-1.2L424,187.1z M316.1,367.7c4.7-14.8,16.3-26.3,31-31.1  l3.6-1.2c24-7.8,41.2-28.8,44-53.8l0.5-4.6c0.5-4.4-2.7-8.3-7.1-8.8c-0.3,0-0.7-0.1-1,0l-49,0.7l10.8-8.6l-10-12.5l-17.6,14.1  c-0.1-0.6-0.1-1.2,0-1.8l1.3-11.3c0.4-3.4,2.8-6.1,6.1-6.9l77.7-18.4l9.4,3c10.1,3.2,18.5,10.3,23.4,19.7l2.5,4.9  c4.9,9.4,5.8,20.4,2.6,30.5l-42.5,133.5L310.3,386L316.1,367.7z M430.5,483.1l-152.5-48.5l11.1-35l4.2-2.2l146.1,46.5l2.2,4.2  L430.5,483.1z M432.3,424.8L417,420l10.6-33.4l17.7-2.8L432.3,424.8z M450.7,366.8l-17.7,2.8l11.6-36.3l17.7-2.8L450.7,366.8z   M475.7,288.5l-7.9,24.9l-17.7,2.8l9.5-29.7c0.7-2.1,1.2-4.3,1.6-6.5l17.2-2.7C477.7,281,476.8,284.8,475.7,288.5L475.7,288.5z   M461.9,263.6c-0.7-6.9-2.8-13.7-6-19.9l-2.5-4.9c-1.2-2.4-2.6-4.7-4.2-6.9l17.2-12.2c8,12.2,12.5,26.5,13,41.1L461.9,263.6z"/><rect x="396.6" y="240.1" transform="matrix(0.3034 -0.9529 0.9529 0.3034 45.4063 558.3409)" width="16" height="16"/><path d="M210.7,158.4c12-4.2,24.6-6.4,37.3-6.4c7.5,0,15,0.7,22.4,2.2l3.2-15.7c-22.8-4.6-46.3-3-68.3,4.7L210.7,158.4z"/><text x="0" y="527" fill="#000000" font-size="5px" font-weight="bold" font-family="'Helvetica Neue', Helvetica, Arial-Unicode, Arial, Sans-serif">Created by Wichai Wi</text><text x="0" y="532" fill="#000000" font-size="5px" font-weight="bold" font-family="'Helvetica Neue', Helvetica, Arial-Unicode, Arial, Sans-serif">from the Noun Project</text></svg>