<svg xmlns="http://www.w3.org/2000/svg" xmlns:xlink="http://www.w3.org/1999/xlink" version="1.1" x="0px" y="0px" viewBox="0 0 454.634 551.2275000000001" style="enable-background:new 0 0 454.634 440.982;" xml:space="preserve"><g><path d="M261.491,143.426h16.01c0.051-1.474,0.088-2.915,0.115-4.332h-16.004C261.583,140.506,261.543,141.949,261.491,143.426z"/><path d="M261.118,151.521c-0.258,4.411,3.109,8.194,7.522,8.452c0.158,0.009,0.316,0.014,0.473,0.014   c4.205,0,7.732-3.283,7.98-7.536c0.119-2.063,0.215-4.061,0.297-6.025h-16.012C261.305,148.086,261.219,149.781,261.118,151.521z"/><path d="M192.861,237.27c-0.531,6.81,4.559,12.756,11.365,13.287c6.807,0.531,12.758-4.555,13.289-11.364l0.125-1.615   l-24.653-1.923L192.861,237.27z"/><path d="M216.009,178.041l1.516-1.434l0.059-0.056l-0.859-0.905c-0.727,0.271-1.406,0.406-2.053,0.406   c-0.113,0-0.223-0.004-0.334-0.012c-1.969,0.356-8.729,9.141-14.676,19.181l-0.803,1.354l-1.505-0.462   c-0.413-0.127-0.831-0.263-1.251-0.402l-2.882,36.952l24.654,1.923l3.967-50.88l-4.334-4.209L216.009,178.041z"/><polygon points="259.028,219.813 257.653,218.477 234.827,196.313 237.811,234.586 262.465,232.663 261.489,220.156    260.155,218.745  "/><path d="M238.17,239.192c0.531,6.81,6.482,11.896,13.289,11.364c6.807-0.531,11.897-6.477,11.365-13.287l-0.127-1.615   l-24.652,1.923L238.17,239.192z"/><path d="M233.375,71.962l-1.9-7.5h-3.798h-3.801l-1.9,7.5l1.424,2.249c1.316,0.772,2.791,1.168,4.275,1.169   c1.483-0.001,2.96-0.397,4.276-1.171L233.375,71.962z"/><path d="M236.672,56.502c8.037-3.432,13.67-11.406,13.67-20.699c0-2.814-0.522-5.505-1.465-7.988   c0.537-0.558,0.859-1.144,0.941-1.75c2.619,0.092,4.633-0.33,5.521-1.732C258.323,19.631,250.676,0,227.845,0   c-22.836,0-30.48,19.631-27.498,24.332c0.889,1.402,2.902,1.824,5.521,1.732c0.08,0.607,0.402,1.193,0.939,1.75   c-0.943,2.483-1.465,5.174-1.465,7.988c0,9.206,5.531,17.115,13.449,20.599c2.77,1.219,5.83,1.901,9.053,1.901   C230.977,58.303,233.961,57.66,236.672,56.502z M227.845,4.094c2.114,0,3.88,1.468,4.358,3.438   c2.525-0.352,5.639-0.853,5.639-0.853s-2.918,2.378-5.813,3.54c-0.652,1.68-2.275,2.876-4.185,2.876   c-1.912,0-3.535-1.195-4.188-2.875c-2.895-1.162-5.814-3.541-5.814-3.541s3.115,0.502,5.641,0.853   C223.962,5.562,225.726,4.094,227.845,4.094z M227.845,15.428c12.147,0,21.997,3.135,21.997,6.998c0,0.575-0.223,1.133-0.633,1.668   c-2.352-3.06-11.023-5.332-21.364-5.332c-10.346,0-19.018,2.272-21.369,5.332c-0.41-0.535-0.633-1.093-0.633-1.668   C205.843,18.563,215.693,15.428,227.845,15.428z"/><path d="M176.792,167.95c0,0,14.05-5.921,14.843-4.216c0.794,1.705,7.357,7.777,7.357,7.777s-9.443,14.252-10.149,16.969   c-0.706,2.715,9.098,5.722,9.098,5.722s12.139-20.487,16.547-20.155c0.779,0.059,1.703-0.266,2.693-0.83l3.23,3.414l-1.514,1.43   l40.147,38.982l1.189-1.125l19.994,21.137l3.889-3.678l-19.994-21.137l1.188-1.124l-36.689-42.251l-1.513,1.431l-3.018-3.189   c2.168-2.386,3.758-4.468,3.758-4.468l-18.936-22.615l-11.048,3.9l-1.858-1.874c0.094,3.033,0.235,6.152,0.424,9.336   c0.158,2.719-0.75,5.339-2.558,7.375c-1.813,2.038-4.308,3.247-7.028,3.406c-0.176,0.012-0.393,0.017-0.604,0.017   c-3.116,0-5.919-1.414-7.795-3.644c-3.459,0.969-6.273,1.498-6.273,1.498L176.792,167.95z"/><path d="M175.704,145.001c-0.15-4.029-0.236-7.955-0.236-11.705c0-4.049,0.101-7.933,0.28-11.666l-13.078-13.183   c0,0-9.483,8.15-16.092,18.905C142.497,133.99,161.348,140.143,175.704,145.001z"/><path d="M177.667,133.296c0,5.855,0.185,12.224,0.595,19.161c0.25,4.25,3.774,7.529,7.979,7.529c0.157,0,0.316-0.005,0.477-0.015   c4.412-0.259,7.776-4.046,7.517-8.456c-0.393-6.649-0.568-12.706-0.568-18.22c0-6.597,0.256-12.407,0.701-17.521   c0.133-1.52,0.28-2.984,0.444-4.381c0-0.005,0-0.011,0.001-0.017c1.298-11.149,3.58-18.372,5.818-22.963v49.236l-0.254,3.265   l7.871-2.778l1.309-0.461l0.889,1.062l13.635,16.285l0.047-0.613h7.433l1.268,16.251l27.25,31.377l-5.354-68.645V88.422   c0.592,1.215,1.189,2.61,1.779,4.236c2.818,7.813,5.188,20.63,5.178,40.64c0,0.909-0.012,1.856-0.021,2.796h16.002   c0.008-0.937,0.022-1.884,0.022-2.796c-0.039-28.638-4.381-45.139-10.441-55.333l2.627-3.834l-15.535-10.646l-1.273,1.858   c-2.348-0.823-4.35-1.046-5.693-1.065c-0.125-0.006-0.246-0.019-0.371-0.019h-5.533c0.811,2.547,1.27,5.5,1.27,8.855   c0,7.22-4.658,14.741-8.793,19.998l-2.105-15.518c-1.334,0.519-2.742,0.786-4.15,0.786h-0.006h-0.002   c-1.408,0.001-2.82-0.266-4.156-0.785l-2.105,15.515c-4.135-5.256-8.791-12.777-8.791-19.996c0-3.356,0.457-6.309,1.27-8.855   h-5.533c-0.09,0-0.18,0.011-0.269,0.014c-1.277-0.024-3.234,0.211-5.521,0.986l-1.215-1.774l-15.535,10.648l2.45,3.575   c-4.223,6.932-7.598,16.98-9.35,31.823h-0.001c-0.148,1.259-0.279,2.565-0.402,3.895   C177.972,119.304,177.667,125.883,177.667,133.296z M217.011,100.491h-12.5v-2.896h12.5V100.491z M204.248,69.477l-3.17,2.171   l-3.001-4.707l3.016-2.067L204.248,69.477z M197.115,67.602l3.001,4.706l-9.754,6.685l-3.154-4.601L197.115,67.602z    M227.677,108.331c-1.934,0-3.5-1.567-3.5-3.5c0-1.934,1.566-3.5,3.5-3.5c1.933,0,3.499,1.566,3.499,3.5   C231.176,106.764,229.61,108.331,227.677,108.331z M227.677,116.581c1.933,0,3.499,1.566,3.499,3.5c0,1.933-1.566,3.5-3.499,3.5   c-1.934,0-3.5-1.567-3.5-3.5C224.177,118.147,225.744,116.581,227.677,116.581z M227.677,138.831c-1.934,0-3.5-1.567-3.5-3.5   c0-1.934,1.566-3.5,3.5-3.5c1.933,0,3.499,1.566,3.499,3.5C231.176,137.264,229.61,138.831,227.677,138.831z M265.325,78.992   l-9.754-6.683l3-4.706l9.906,6.788L265.325,78.992z M257.61,66.943l-3.002,4.707l-3.17-2.172l3.154-4.601L257.61,66.943z    M238.676,93.574h12.5v2.896h-12.5V93.574z M238.676,97.596h12.5v2.896h-12.5V97.596z M217.011,96.47h-12.5v-2.896h12.5V96.47z"/><path d="M43.944,440.982c4.638,0,8.398-3.759,8.398-8.398V324.873c2.238-0.207,4.962-0.543,7.764-1.096   c3.352-0.679,6.801-1.603,9.939-3.328c1.564-0.878,3.096-1.982,4.383-3.607c1.286-1.595,2.226-3.876,2.204-6.249   c0-2.115-0.663-4.119-1.678-5.906c-1.541-2.693-3.846-5.102-7.063-7.703c-3.225-2.59-7.405-5.342-12.821-8.39   c-2.299-1.292-5.135-0.732-6.787,1.196c-2.173-5.793-7.76-9.916-14.312-9.916c-8.44,0-15.283,6.842-15.283,15.283   c0,8.441,6.843,15.283,15.283,15.283c7.608,0,13.916-5.561,15.086-12.839c0.216,0.168,0.441,0.327,0.686,0.465   c6.735,3.78,11.112,6.956,13.521,9.293c1.208,1.161,1.911,2.101,2.231,2.675c0.07,0.125,0.124,0.232,0.164,0.321   c-0.426,0.341-1.433,0.98-2.853,1.468c-2.848,1.06-6.996,1.767-10.295,2.109c-1.653,0.177-3.109,0.279-4.138,0.334   c-0.478,0.027-0.855,0.043-1.126,0.053c-0.051-0.002-0.102-0.008-0.153-0.008H20.851c-0.078,0-0.155,0.008-0.234,0.012   c-1.224,0.014-3.267,0.276-5.595,1.449c-3.654,1.811-7.592,5.774-10.35,12.799C1.882,335.621,0.01,345.815,0,361.205   c0.002,3.979,0.13,8.304,0.407,13.015c0.169,2.887,2.563,5.114,5.418,5.115c0.108,0,0.216-0.003,0.325-0.01   c2.996-0.175,5.282-2.747,5.104-5.743c-0.265-4.518-0.386-8.631-0.386-12.377c-0.023-16.451,2.377-25.69,4.732-30.513v101.892   c0,4.64,3.761,8.398,8.397,8.398c4.639,0,8.399-3.759,8.399-8.398v-61.316h3.147v61.316   C35.546,437.224,39.308,440.982,43.944,440.982z"/><path d="M76.008,374.22c0.168,2.887,2.563,5.114,5.418,5.115c0.107,0,0.215-0.003,0.324-0.01c2.996-0.175,5.283-2.747,5.105-5.743   c-0.266-4.518-0.387-8.631-0.387-12.377c-0.023-16.451,2.377-25.69,4.732-30.513v101.892c0,4.64,3.762,8.398,8.398,8.398   c4.639,0,8.399-3.759,8.399-8.398v-61.316h3.148v61.316c0,4.64,3.762,8.398,8.399,8.398c4.637,0,8.398-3.759,8.398-8.398V324.873   c2.238-0.207,4.961-0.543,7.764-1.096c3.352-0.679,6.801-1.603,9.939-3.328c1.565-0.878,3.096-1.982,4.383-3.607   c1.285-1.595,2.225-3.876,2.203-6.249c0-2.115-0.662-4.119-1.678-5.906c-1.541-2.693-3.846-5.102-7.063-7.703   c-3.225-2.59-7.404-5.342-12.82-8.39c-2.299-1.292-5.135-0.732-6.787,1.196c-2.174-5.793-7.76-9.916-14.313-9.916   c-8.439,0-15.283,6.842-15.283,15.283c0,8.441,6.844,15.283,15.283,15.283c7.609,0,13.916-5.561,15.086-12.839   c0.217,0.168,0.441,0.327,0.686,0.465c6.736,3.78,11.113,6.956,13.521,9.293c1.207,1.161,1.91,2.101,2.23,2.675   c0.07,0.125,0.123,0.232,0.164,0.321c-0.426,0.341-1.434,0.98-2.854,1.468c-2.848,1.06-6.996,1.767-10.295,2.109   c-1.654,0.177-3.109,0.279-4.139,0.334c-0.477,0.027-0.855,0.043-1.125,0.053c-0.051-0.002-0.102-0.008-0.154-0.008H96.451   c-0.078,0-0.156,0.008-0.234,0.012c-1.225,0.014-3.268,0.276-5.596,1.449c-3.654,1.811-7.592,5.774-10.35,12.799   c-2.789,7.049-4.662,17.243-4.672,32.633C75.602,365.185,75.73,369.509,76.008,374.22z"/><path d="M203.71,313.934c-1.652,0.177-3.109,0.279-4.137,0.334c-0.479,0.027-0.855,0.043-1.127,0.053   c-0.051-0.002-0.102-0.008-0.153-0.008h-26.243c-0.078,0-0.155,0.008-0.234,0.012c-1.224,0.014-3.268,0.276-5.595,1.449   c-3.654,1.811-7.592,5.774-10.35,12.799c-2.79,7.049-4.662,17.243-4.672,32.633c0.002,3.979,0.13,8.304,0.407,13.015   c0.169,2.887,2.563,5.114,5.418,5.115c0.107,0,0.216-0.003,0.325-0.01c2.996-0.175,5.282-2.747,5.104-5.743   c-0.265-4.518-0.386-8.631-0.386-12.377c-0.023-16.451,2.377-25.69,4.732-30.513v101.892c0,4.64,3.761,8.398,8.398,8.398   c4.639,0,8.399-3.759,8.399-8.398v-61.316h3.147v61.316c0,4.64,3.762,8.398,8.398,8.398c4.638,0,8.398-3.759,8.398-8.398V324.873   c2.238-0.207,4.963-0.543,7.764-1.096c3.352-0.679,6.801-1.603,9.939-3.328c1.564-0.878,3.096-1.982,4.383-3.607   c1.287-1.595,2.227-3.876,2.205-6.249c0-2.115-0.662-4.119-1.678-5.906c-1.541-2.693-3.846-5.102-7.063-7.703   c-3.225-2.59-7.406-5.342-12.822-8.39c-2.299-1.292-5.135-0.732-6.787,1.196c-2.172-5.793-7.759-9.916-14.311-9.916   c-8.44,0-15.283,6.842-15.283,15.283c0,8.441,6.843,15.283,15.283,15.283c7.608,0,13.917-5.561,15.086-12.839   c0.215,0.168,0.439,0.327,0.686,0.465c6.734,3.78,11.111,6.956,13.52,9.293c1.209,1.161,1.912,2.101,2.23,2.675   c0.07,0.125,0.125,0.232,0.164,0.321c-0.426,0.341-1.432,0.98-2.854,1.468C211.158,312.885,207.009,313.591,203.71,313.934z"/><path d="M275.084,289.791c-2.172-5.793-7.76-9.916-14.31-9.916c-8.441,0-15.283,6.842-15.283,15.283   c0,8.441,6.842,15.283,15.283,15.283c7.607,0,13.916-5.561,15.086-12.839c0.215,0.168,0.44,0.327,0.686,0.465   c6.734,3.78,11.111,6.956,13.52,9.293c1.209,1.161,1.912,2.101,2.23,2.675c0.07,0.125,0.125,0.232,0.164,0.321   c-0.426,0.341-1.432,0.98-2.853,1.468c-2.848,1.06-6.996,1.767-10.295,2.109c-1.652,0.177-3.109,0.279-4.137,0.334   c-0.479,0.027-0.855,0.043-1.127,0.053c-0.051-0.002-0.102-0.008-0.152-0.008h-26.244c-0.078,0-0.154,0.008-0.234,0.012   c-1.223,0.014-3.267,0.276-5.594,1.449c-3.654,1.811-7.592,5.774-10.35,12.799c-2.791,7.049-4.661,17.243-4.671,32.633   c0.002,3.979,0.129,8.304,0.406,13.015c0.17,2.887,2.564,5.114,5.417,5.115c0.107,0,0.217-0.003,0.326-0.01   c2.996-0.175,5.281-2.747,5.104-5.743c-0.264-4.518-0.385-8.631-0.385-12.377c-0.023-16.451,2.377-25.69,4.732-30.513v101.892   c0,4.64,3.76,8.398,8.396,8.398c4.639,0,8.4-3.759,8.4-8.398v-61.316h3.147v61.316c0,4.64,3.762,8.398,8.398,8.398   c4.639,0,8.398-3.759,8.398-8.398V324.873c2.238-0.207,4.963-0.543,7.764-1.096c3.352-0.679,6.801-1.603,9.939-3.328   c1.564-0.878,3.096-1.982,4.383-3.607c1.287-1.595,2.227-3.876,2.205-6.249c0-2.115-0.664-4.119-1.678-5.906   c-1.541-2.693-3.846-5.102-7.063-7.703c-3.225-2.59-7.406-5.342-12.822-8.39C279.573,287.303,276.737,287.862,275.084,289.791z"/><path d="M302.807,374.22c0.17,2.887,2.564,5.114,5.418,5.115c0.108,0,0.217-0.003,0.326-0.01c2.996-0.175,5.281-2.747,5.104-5.743   c-0.264-4.518-0.385-8.631-0.385-12.377c-0.023-16.451,2.377-25.69,4.732-30.513v101.892c0,4.64,3.76,8.398,8.397,8.398   c4.639,0,8.4-3.759,8.4-8.398v-61.316h3.146v61.316c0,4.64,3.762,8.398,8.398,8.398c4.639,0,8.398-3.759,8.398-8.398V324.873   c2.238-0.207,4.963-0.543,7.764-1.096c3.352-0.679,6.801-1.603,9.939-3.328c1.565-0.878,3.096-1.982,4.383-3.607   c1.287-1.595,2.227-3.876,2.205-6.249c0-2.115-0.664-4.119-1.678-5.906c-1.541-2.693-3.846-5.102-7.063-7.703   c-3.225-2.59-7.406-5.342-12.822-8.39c-2.299-1.292-5.135-0.732-6.787,1.196c-2.172-5.793-7.76-9.916-14.311-9.916   c-8.441,0-15.283,6.842-15.283,15.283c0,8.441,6.842,15.283,15.283,15.283c7.607,0,13.916-5.561,15.086-12.839   c0.215,0.168,0.44,0.327,0.686,0.465c6.734,3.78,11.111,6.956,13.52,9.293c1.209,1.161,1.912,2.101,2.23,2.675   c0.07,0.125,0.125,0.232,0.164,0.321c-0.426,0.341-1.432,0.98-2.854,1.468c-2.848,1.06-6.996,1.767-10.295,2.109   c-1.652,0.177-3.109,0.279-4.137,0.334c-0.479,0.027-0.855,0.043-1.127,0.053c-0.051-0.002-0.102-0.008-0.152-0.008H323.25   c-0.078,0-0.154,0.008-0.234,0.012c-1.223,0.014-3.268,0.276-5.594,1.449c-3.654,1.811-7.592,5.774-10.35,12.799   c-2.791,7.049-4.662,17.243-4.672,32.633C302.403,365.185,302.53,369.509,302.807,374.22z"/><path d="M378.409,374.22c0.168,2.887,2.563,5.114,5.418,5.115c0.107,0,0.215-0.003,0.324-0.01c2.996-0.175,5.283-2.747,5.105-5.743   c-0.266-4.518-0.387-8.631-0.387-12.377c-0.023-16.451,2.377-25.69,4.732-30.513v101.892c0,4.64,3.762,8.398,8.398,8.398   c4.639,0,8.398-3.759,8.398-8.398v-61.316h3.148v61.316c0,4.64,3.762,8.398,8.398,8.398c4.637,0,8.398-3.759,8.398-8.398V324.873   c2.238-0.207,4.961-0.543,7.764-1.096c3.352-0.679,6.801-1.603,9.939-3.328c1.565-0.878,3.096-1.982,4.383-3.607   c1.285-1.595,2.225-3.876,2.203-6.249c0-2.115-0.662-4.119-1.678-5.906c-1.541-2.693-3.846-5.102-7.063-7.703   c-3.225-2.59-7.404-5.342-12.82-8.39c-2.299-1.292-5.135-0.732-6.787,1.196c-2.174-5.793-7.76-9.916-14.313-9.916   c-8.44,0-15.283,6.842-15.283,15.283c0,8.441,6.844,15.283,15.283,15.283c7.609,0,13.916-5.561,15.086-12.839   c0.217,0.168,0.441,0.327,0.686,0.465c6.736,3.78,11.113,6.956,13.521,9.293c1.207,1.161,1.91,2.101,2.23,2.675   c0.07,0.125,0.123,0.232,0.164,0.321c-0.426,0.341-1.434,0.98-2.854,1.468c-2.848,1.06-6.996,1.767-10.295,2.109   c-1.654,0.177-3.109,0.279-4.139,0.334c-0.477,0.027-0.855,0.043-1.125,0.053c-0.051-0.002-0.102-0.008-0.154-0.008h-26.242   c-0.078,0-0.156,0.008-0.234,0.012c-1.225,0.014-3.268,0.276-5.596,1.449c-3.654,1.811-7.592,5.774-10.35,12.799   c-2.789,7.049-4.662,17.243-4.672,32.633C378.003,365.185,378.131,369.509,378.409,374.22z"/></g><text x="0" y="455.982" fill="#000000" font-size="5px" font-weight="bold" font-family="'Helvetica Neue', Helvetica, Arial-Unicode, Arial, Sans-serif">Created by Gan Khoon Lay</text><text x="0" y="460.982" fill="#000000" font-size="5px" font-weight="bold" font-family="'Helvetica Neue', Helvetica, Arial-Unicode, Arial, Sans-serif">from the Noun Project</text></svg>